<svg xmlns="http://www.w3.org/2000/svg" width="16" height="16" fill="#475569" class="bi bi-bricks" viewBox="0 0 16 16">
  <path d="M1.5 2h4a.5.5 0 0 1 .5.5V5a.5.5 0 0 1-.5.5h-4A.5.5 0 0 1 1 5V2.5a.5.5 0 0 1 .5-.5m6 0h7a.5.5 0 0 1 .5.5V5a.5.5 0 0 1-.5.5h-7A.5.5 0 0 1 7 5V2.5a.5.5 0 0 1 .5-.5m-6 4.5h7a.5.5 0 0 1 .5.5V9a.5.5 0 0 1-.5.5h-7A.5.5 0 0 1 1 9V7a.5.5 0 0 1 .5-.5m9 0h4a.5.5 0 0 1 .5.5V9a.5.5 0 0 1-.5.5h-4A.5.5 0 0 1 10 9V7a.5.5 0 0 1 .5-.5m-9 4.5h4a.5.5 0 0 1 .5.5V14a.5.5 0 0 1-.5.5h-4a.5.5 0 0 1-.5-.5v-2.5a.5.5 0 0 1 .5-.5m6 0h7a.5.5 0 0 1 .5.5V14a.5.5 0 0 1-.5.5h-7a.5.5 0 0 1-.5-.5v-2.5a.5.5 0 0 1 .5-.5"/>
</svg>
