<svg xmlns="http://www.w3.org/2000/svg" width="16" height="16" fill="#475569" class="bi bi-brush-fill" viewBox="0 0 16 16">
  <path d="M15.825.12a.5.5 0 0 1 .132.584c-1.53 3.43-4.743 8.17-7.095 10.64a6.1 6.1 0 0 1-2.373 1.534c-.018.227-.06.538-.16.868-.201.659-.667 1.479-1.708 1.74a8.1 8.1 0 0 1-3.078.132 4 4 0 0 1-.562-.135 1.4 1.4 0 0 1-.466-.247.7.7 0 0 1-.204-.288.62.62 0 0 1 .004-.443c.095-.245.316-.38.461-.452.394-.195.625-.453.625-.585 0-.434.116-.873.366-1.32a1.4 1.4 0 0 1-.366-.94c0-.766.622-1.388 1.388-1.388.766 0 1.388.622 1.388 1.388 0 .353-.132.675-.349.92.298.292.479.7.479 1.16 0 .463-.18.873-.479 1.165.298.292.479.7.479 1.16 0 1.42-1.4 2.55-3.13 2.55a6.7 6.7 0 0 1-.79-.046q-.27-.03-.46-.07c1.66.34 3.22.32 4.28-.42.49-.34.79-.79.95-1.21l.06-.18C9.99 9.95 13.2 5.21 14.73.78a.5.5 0 0 1 .584-.132z"/>
</svg>
