<svg xmlns="http://www.w3.org/2000/svg" width="16" height="16" fill="#475569" class="bi bi-signpost" viewBox="0 0 16 16">
  <path d="M7.25 1.25a.75.75 0 0 1 1.5 0V2h3.69a1 1 0 0 1 .72.305l1.5 1.5a.5.5 0 0 1 0 .69l-1.5 1.5a1 1 0 0 1-.72.305H8.75v3h2.19a1 1 0 0 1 .72.305l1.5 1.5a.5.5 0 0 1 0 .69l-1.5 1.5a1 1 0 0 1-.72.305H8.75v.85a.75.75 0 0 1-1.5 0V14H3.06a1 1 0 0 1-.72-.305l-1.5-1.5a.5.5 0 0 1 0-.69l1.5-1.5A1 1 0 0 1 3.06 9.7h4.19v-3H4.31a1 1 0 0 1-.72-.305l-1.5-1.5a.5.5 0 0 1 0-.69l1.5-1.5A1 1 0 0 1 4.31 2h2.94z"/>
</svg>
