<svg xmlns="http://www.w3.org/2000/svg" width="56" height="56" viewBox="0 0 56 56">
  <defs>
    <filter id="shadow" x="-20%" y="-20%" width="140%" height="140%">
      <feDropShadow dx="0" dy="2" stdDeviation="3" flood-color="#0EA5E9" flood-opacity="0.35"/>
    </filter>
  </defs>
  <circle cx="28" cy="26" r="20" fill="#0EA5E9" filter="url(#shadow)"/>
  <path fill="#FFFFFF" transform="translate(16, 14)" d="M20 5h-3.17l-1.84-2H9.01L7.17 5H4a2 2 0 0 0-2 2v11a2 2 0 0 0 2 2h16a2 2 0 0 0 2-2V7a2 2 0 0 0-2-2zm-8 12a4 4 0 1 1 0-8 4 4 0 0 1 0 8z"/>
</svg>
