<svg xmlns="http://www.w3.org/2000/svg" width="32" height="32" viewBox="0 0 24 24">
  <path fill="#475569" d="M20 5h-3.17l-1.84-2H9.01L7.17 5H4a2 2 0 0 0-2 2v11a2 2 0 0 0 2 2h9.4a6.6 6.6 0 0 1-.4-2.25c0-2.82 1.76-5.23 4.25-6.17V9h-2v2h-2V9h-2v2H9v2h2v2h1.37A6.7 6.7 0 0 1 13 13a4 4 0 1 1-3.2-3.92l1.51-1.51A6 6 0 0 0 6 13a6 6 0 0 0 6 6h.07c.46 2.83 2.91 5 5.88 5A6.05 6.05 0 0 0 24 17.95C24 15.1 22.02 12.7 19.35 12H20a2 2 0 0 0 2-2V7a2 2 0 0 0-2-2z"/>
  <path fill="#2563EB" d="M19.5 17h-.5v-1.1a2.5 2.5 0 0 0-5 0V17h-.5a.5.5 0 0 0-.5.5v4a.5.5 0 0 0 .5.5h6a.5.5 0 0 0 .5-.5v-4a.5.5 0 0 0-.5-.5zM16 17v-1.1a1 1 0 0 1 2 0V17h-2z"/>
</svg>
